<?xml version="1.0" encoding="utf-8"?>
<!-- Generator: Adobe Illustrator 24.1.0, SVG Export Plug-In . SVG Version: 6.00 Build 0)  -->
<svg version="1.1" id="Logo" xmlns="http://www.w3.org/2000/svg" xmlns:xlink="http://www.w3.org/1999/xlink" x="0px" y="0px"
	 viewBox="0 0 1081 336" style="enable-background:new 0 0 1081 336;" xml:space="preserve">
<style type="text/css">
	.st0{fill:#3D4B5B;}
	.st1{fill:url(#SVGID_1_);}
	.st2{fill:#FFFFFF;}
	.st3{fill:#CC1417;}
</style>
<g>
	<path class="st0" d="M366.1,124.5h21.5v13.9h0.4c6.4-11.7,18.7-16.7,31.8-16.7c32.4,0,48.2,24.7,48.2,54.7
		c0,27.7-13.9,53.7-44.4,53.7c-13.1,0-27.3-4.8-34.4-16.1h-0.4v51.3h-22.7L366.1,124.5L366.1,124.5z M416.9,139.6
		c-19.1,0-28.9,14.5-28.9,36.4c0,20.7,10.5,36.2,28.9,36.2c20.7,0,28.5-18.3,28.5-36.2C445.3,157.3,435.6,139.6,416.9,139.6z
		 M479.2,124.5h22.7v102.9h-22.7V124.5z M517.4,124.5h21.5v14.3h0.6c6.8-10.1,15.3-17.1,31.6-17.1c12.5,0,24.3,5.4,28.9,17.1
		c7.6-10.5,17.3-17.1,32.2-17.1c21.7,0,34.4,9.6,34.4,34.6v71.1H644v-60.1c0-16.3-1-27.7-18.7-27.7c-15.3,0-21.9,10.1-21.9,27.5
		v60.3h-22.7v-66.1c0-14.1-4.4-21.7-18.1-21.7c-11.7,0-22.5,9.6-22.5,26.7v61.1h-22.7L517.4,124.5L517.4,124.5z M699.7,181.8
		c0,16.1,8.8,30.4,27.7,30.4c13.1,0,21.1-5.8,25.1-17.1H774c-5,22.5-24.1,35-46.6,35c-32.2,0-50.4-22.5-50.4-54.1
		c0-29.3,19.1-54.3,49.8-54.3c32.4,0,52.3,29.3,48.6,60.1L699.7,181.8L699.7,181.8z M752.7,166.9c-0.8-14.3-10.5-27.3-25.9-27.3
		c-15.7,0-26.5,11.9-27.1,27.3H752.7z M784.7,124.5h21.5v15.1l0.4,0.4c6.8-11.3,18.5-18.3,32-18.3c22.3,0,36.4,11.9,36.4,35v70.7
		h-22.7v-64.7c-0.4-16.1-6.8-23.1-20.1-23.1c-15.1,0-24.9,11.9-24.9,27.1v60.7h-22.7V124.5z M879.7,124.5h17.1V93.6h22.7v30.9H940
		v16.9h-20.5v54.9c0,9.4,0.8,14.1,10.9,14.1c3.2,0,6.4,0,9.6-0.8v17.5c-5,0.4-9.8,1.2-14.7,1.2c-23.7,0-28.1-9.2-28.5-26.3v-60.7
		h-17.1V124.5z M1035.5,204.5c0,5.6,1.2,7.8,5.4,7.8c1.4,0,3.2,0,5.6-0.4v15.7c-3.4,1.2-10.5,2.6-14.3,2.6
		c-9.2,0-15.7-3.2-17.5-12.5c-9,8.8-23.5,12.5-35.6,12.5c-18.5,0-35.2-10-35.2-30.1c0-25.7,20.5-29.9,39.6-32
		c16.3-3,30.9-1.2,30.9-14.5c0-11.7-12.1-13.9-21.3-13.9c-12.7,0-21.7,5.2-22.7,16.3h-22.7c1.6-26.5,24.1-34.2,46.8-34.2
		c20.1,0,41.2,8.2,41.2,29.9V204.5z M1012.8,175.8c-7,4.6-17.9,4.4-27.9,6.2c-9.8,1.6-18.5,5.2-18.5,17.1
		c0,10.1,12.9,13.1,20.9,13.1c10,0,25.5-5.2,25.5-19.5L1012.8,175.8L1012.8,175.8z"/>
	<linearGradient id="SVGID_1_" gradientUnits="userSpaceOnUse" x1="108.1227" y1="38.0471" x2="258.4439" y2="298.411">
		<stop  offset="0" style="stop-color:#CB1619"/>
		<stop  offset="0.3368" style="stop-color:#C31619"/>
		<stop  offset="0.6716" style="stop-color:#AD1619"/>
		<stop  offset="1" style="stop-color:#911619"/>
	</linearGradient>
	<path class="st1" d="M183.3,17.9C100.3,17.9,33,85.2,33,168.2s67.3,150.3,150.3,150.3s150.3-67.3,150.3-150.3
		S266.3,17.9,183.3,17.9z"/>
	<path class="st2" d="M239.4,267.3c0,0,31.8-2.3,32.1,3.2c0.4,5.6-11.8,8-29.4,10.3c-39,5-107.9-35.5-117.1-53.7
		c-15.7-31.2-15.5-72.5-6.9-88c1.6,0.8,3.3,1.5,5,2.1c0,0,0.9,61.3,3.8,60.7c2.8-0.6,9.9-58.5,9.9-58.5c3.2,0,6.5-0.3,9.8-1
		c8.7-1.8,16.3-5.9,21.7-11.1c7.8,15.4,6.3,52.9,3.9,72.2c-0.8,6.3-2.3,31.6-0.2,32.4c1.8,0.7,3.5-19.3,3.5-19.3
		s22.4,18.7,38.9,32.3c9.5,7.8,29,26.9,30.7,26.4C246.2,275,239.4,267.3,239.4,267.3z M155.8,75.8c-5.1-23.4-24.5-27.5-43.3-26.4
		l1.4,6.2c18.1-0.1,30.5,2.6,33.9,20.2c2.8,14.5-1.4,22.3-7.5,32.4c-4.3,7.2-2.1,17.2-3,19c-1.1,2.1-10.9-0.9-10.9-0.9
		c-1.3,2.2-2.9,4.3-4.3,6.7c6.2,3.1,14.5,4.1,23,2.3c7.7-1.6,14.2-5.2,18.6-9.7C142.2,104.6,160.7,98.1,155.8,75.8z"/>
	<circle class="st0" cx="491.5" cy="97.7" r="15.9"/>
</g>
<g>
	<path class="st3" d="M509.6,268.9c-0.6-2.8-2.2-4.8-4.8-5.9c-1.4-0.6-3-0.9-4.7-0.9c-3.3,0-6,1.2-8.1,3.7s-3.2,6.2-3.2,11.2
		c0,5,1.1,8.6,3.5,10.7c2.3,2.1,4.9,3.1,7.8,3.1c2.9,0,5.2-0.8,7.1-2.5s3-3.8,3.4-6.5h-9.5v-6.8h17.1v22h-5.7l-0.9-5.1
		c-1.7,1.9-3.1,3.3-4.5,4.1c-2.3,1.4-5,2.1-8.4,2.1c-5.4,0-9.9-1.9-13.4-5.6c-3.6-3.8-5.4-9-5.4-15.5c0-6.6,1.8-12,5.5-16
		c3.7-4,8.5-6,14.5-6c5.2,0,9.4,1.3,12.6,4c3.2,2.6,5,5.9,5.4,9.9H509.6z"/>
	<path class="st3" d="M616,257.2c1.5,0.6,2.8,1.6,3.8,2.9c0.9,1,1.6,2.2,2.1,3.5c0.5,1.3,0.8,2.7,0.8,4.3c0,1.9-0.5,3.9-1.5,5.7
		c-1,1.9-2.6,3.2-4.9,4c1.9,0.8,3.2,1.8,4,3.2c0.8,1.4,1.2,3.5,1.2,6.4v2.8c0,1.9,0.1,3.1,0.2,3.8c0.2,1.1,0.8,1.8,1.6,2.3v1h-9.5
		c-0.3-0.9-0.4-1.6-0.6-2.2c-0.2-1.1-0.3-2.3-0.4-3.5l-0.1-3.8c0-2.6-0.5-4.4-1.4-5.2c-0.9-0.9-2.5-1.3-4.9-1.3h-8.4v16.1h-8.4v-41
		h19.6C612.3,256.2,614.5,256.5,616,257.2z M598.3,263.2v11h9.2c1.8,0,3.2-0.2,4.1-0.7c1.6-0.8,2.4-2.3,2.4-4.6c0-2.5-0.8-4.2-2.4-5
		c-0.9-0.5-2.2-0.7-4-0.7L598.3,263.2L598.3,263.2z"/>
	<path class="st3" d="M725.8,293.5c-3.1,3.2-7.6,4.8-13.4,4.8s-10.3-1.6-13.4-4.8c-4.2-3.9-6.2-9.6-6.2-16.9
		c0-7.5,2.1-13.2,6.2-16.9c3.1-3.2,7.6-4.8,13.4-4.8s10.3,1.6,13.4,4.8c4.1,3.8,6.2,9.4,6.2,16.9C732,283.9,729.9,289.6,725.8,293.5
		z M720.4,287.3c2-2.5,3-6.1,3-10.7c0-4.6-1-8.2-3-10.7s-4.7-3.8-8.1-3.8s-6.1,1.3-8.1,3.8c-2,2.5-3,6.1-3,10.7c0,4.6,1,8.2,3,10.7
		c2,2.5,4.7,3.8,8.1,3.8S718.4,289.8,720.4,287.3z"/>
	<path class="st3" d="M801.9,256.1h8.7v25.2c0,2.8,0.3,4.9,1,6.2c1,2.3,3.3,3.4,6.8,3.4c3.5,0,5.7-1.1,6.7-3.4c0.7-1.3,1-3.4,1-6.2
		v-25.2h8.7v25.2c0,4.4-0.7,7.8-2,10.2c-2.5,4.5-7.3,6.7-14.4,6.7s-11.9-2.2-14.4-6.7c-1.4-2.4-2-5.8-2-10.2L801.9,256.1
		L801.9,256.1z"/>
	<path class="st3" d="M933.9,279.4c-2.4,2-5.8,3-10.3,3h-8.5v14.8h-8.5v-41h17.6c4.1,0,7.3,1.1,9.7,3.2s3.6,5.4,3.6,9.8
		C937.5,273.9,936.3,277.4,933.9,279.4z M927.4,264.6c-1.1-0.9-2.6-1.4-4.6-1.4h-7.7v12.1h7.7c2,0,3.5-0.5,4.6-1.5
		c1.1-1,1.6-2.5,1.6-4.7S928.5,265.5,927.4,264.6z"/>
</g>
</svg>
