<svg width="74" height="24" viewBox="0 0 74 24" fill="none" xmlns="http://www.w3.org/2000/svg">
<path d="M25.2361 9.37873H26.6888V10.3209H26.7158C27.1482 9.52786 27.9793 9.18893 28.8644 9.18893C31.0536 9.18893 32.1211 10.8632 32.1211 12.8968C32.1211 14.7744 31.1819 16.5368 29.1212 16.5368C28.236 16.5368 27.2766 16.2114 26.7969 15.4455H26.7698V18.9228H25.2361V9.37873ZM28.6685 10.4023C27.3779 10.4023 26.7158 11.3852 26.7158 12.8696C26.7158 14.2728 27.4252 15.3235 28.6685 15.3235C30.0671 15.3235 30.5941 14.083 30.5941 12.8696C30.5873 11.6021 29.9319 10.4023 28.6685 10.4023ZM32.8778 9.37873H34.4116V16.3538H32.8778V9.37873ZM35.4589 9.37873H36.9116V10.3481H36.9521C37.4115 9.66343 37.9859 9.18893 39.0872 9.18893C39.9318 9.18893 40.7291 9.55497 41.0399 10.3481C41.5534 9.63631 42.2088 9.18893 43.2155 9.18893C44.6817 9.18893 45.5398 9.83967 45.5398 11.5343V16.3538H44.0128V12.2799C44.0128 11.175 43.9452 10.4023 42.7493 10.4023C41.7155 10.4023 41.2696 11.0869 41.2696 12.2664V16.3538H39.7358V11.8732C39.7358 10.9174 39.4385 10.4023 38.5129 10.4023C37.7224 10.4023 36.9926 11.053 36.9926 12.2121V16.3538H35.4589V9.37873ZM47.7762 13.2628C47.7762 14.3541 48.3708 15.3235 49.6478 15.3235C50.5329 15.3235 51.0735 14.9303 51.3437 14.1643H52.7964C52.4586 15.6895 51.1681 16.5368 49.6478 16.5368C47.4722 16.5368 46.2425 15.0116 46.2425 12.8696C46.2425 10.8836 47.533 9.18893 49.6073 9.18893C51.7964 9.18893 53.141 11.175 52.891 13.2628H47.7762ZM51.3573 12.2528C51.3032 11.2835 50.6478 10.4023 49.6073 10.4023C48.5465 10.4023 47.8168 11.2089 47.7762 12.2528H51.3573ZM53.5194 9.37873H54.9721V10.4023L54.9991 10.4294C55.4585 9.66343 56.2491 9.18893 57.1612 9.18893C58.6679 9.18893 59.6206 9.99557 59.6206 11.5614V16.3538H58.0869V11.9681C58.0598 10.8768 57.6274 10.4023 56.7288 10.4023C55.7085 10.4023 55.0464 11.2089 55.0464 12.2392V16.3538H53.5126V9.37873H53.5194ZM59.9382 9.37873H61.0936V7.28418H62.6273V9.37873H64.0124V10.5243H62.6273V14.2457C62.6273 14.8829 62.6814 15.2014 63.3638 15.2014C63.58 15.2014 63.7962 15.2014 64.0124 15.1472V16.3334C63.6746 16.3606 63.3503 16.4148 63.0192 16.4148C61.4179 16.4148 61.1206 15.7912 61.0936 14.632V10.5175H59.9382V9.37873ZM70.465 14.8015C70.465 15.1811 70.5461 15.3302 70.8299 15.3302C70.9245 15.3302 71.0461 15.3302 71.2083 15.3031V16.3673C70.9785 16.4487 70.4988 16.5436 70.2421 16.5436C69.6205 16.5436 69.1813 16.3267 69.0597 15.6963C68.4516 16.2928 67.4718 16.5436 66.6543 16.5436C65.4043 16.5436 64.276 15.8657 64.276 14.5033C64.276 12.7612 65.6611 12.4765 66.9516 12.3341C68.0529 12.1308 69.0394 12.2528 69.0394 11.3513C69.0394 10.5582 68.2218 10.4091 67.6002 10.4091C66.7421 10.4091 66.134 10.7615 66.0665 11.5139H64.5327C64.6408 9.71765 66.1611 9.19571 67.6948 9.19571C69.0529 9.19571 70.4785 9.75155 70.4785 11.2225V14.8015H70.465ZM68.9313 12.8561C68.4583 13.1679 67.7218 13.1543 67.0462 13.2764C66.384 13.3848 65.7962 13.6288 65.7962 14.4355C65.7962 15.1201 66.6678 15.3235 67.2083 15.3235C67.884 15.3235 68.9313 14.971 68.9313 14.0017V12.8561Z" fill="white"/>
<path d="M12.885 2.15283C7.27696 2.15283 2.72974 6.71475 2.72974 12.3409C2.72974 17.967 7.27696 22.5289 12.885 22.5289C18.493 22.5289 23.0402 17.967 23.0402 12.3409C23.0402 6.71475 18.493 2.15283 12.885 2.15283Z" fill="url(#paint0_linear_341_213)"/>
<path d="M16.6755 19.0585C16.6755 19.0585 18.8241 18.9026 18.8444 19.2754C18.8714 19.655 18.0471 19.8177 16.8579 19.9736C14.2228 20.3126 9.56749 17.5673 8.94588 16.3336C7.88509 14.2187 7.8986 11.4192 8.47967 10.3685C8.58778 10.4228 8.70264 10.4702 8.8175 10.5109C8.8175 10.5109 8.87831 14.6661 9.07426 14.6254C9.26344 14.5847 9.74316 10.66 9.74316 10.66C9.95938 10.66 10.1823 10.6397 10.4053 10.5922C10.9931 10.4702 11.5066 10.1923 11.8715 9.83981C12.3985 10.8837 12.2972 13.4256 12.135 14.7339C12.081 15.1609 11.9796 16.8759 12.1215 16.9301C12.2431 16.9775 12.358 15.6218 12.358 15.6218C12.358 15.6218 13.8715 16.8894 14.9863 17.8113C15.6282 18.34 16.9457 19.6347 17.0606 19.6008C17.1349 19.5805 16.6755 19.0585 16.6755 19.0585ZM11.0269 6.07775C10.6823 4.49159 9.37155 4.21367 8.1013 4.28823L8.19589 4.7085C9.41885 4.70172 10.2567 4.88474 10.4864 6.07775C10.6756 7.06063 10.3918 7.58935 9.97965 8.27398C9.68911 8.76203 9.83776 9.43988 9.77695 9.56189C9.70262 9.70424 9.04047 9.50088 9.04047 9.50088C8.95264 9.65001 8.84453 9.79236 8.74994 9.95504C9.16885 10.1652 9.72965 10.233 10.304 10.1109C10.8242 10.0025 11.2634 9.75846 11.5607 9.45343C10.108 8.02995 11.358 7.58935 11.0269 6.07775Z" fill="white"/>
<path d="M33.7089 8.63993C34.3023 8.63993 34.7833 8.15739 34.7833 7.56215C34.7833 6.96691 34.3023 6.48438 33.7089 6.48438C33.1156 6.48438 32.6346 6.96691 32.6346 7.56215C32.6346 8.15739 33.1156 8.63993 33.7089 8.63993Z" fill="white"/>
<path d="M34.9319 19.1668C34.8914 18.977 34.7832 18.8415 34.6076 18.7669C34.513 18.7262 34.4049 18.7059 34.29 18.7059C34.067 18.7059 33.8846 18.7872 33.7427 18.9567C33.6008 19.1261 33.5265 19.377 33.5265 19.7159C33.5265 20.0548 33.6008 20.2988 33.763 20.4412C33.9184 20.5835 34.0941 20.6513 34.29 20.6513C34.486 20.6513 34.6414 20.5971 34.7697 20.4818C34.8981 20.3666 34.9724 20.2243 34.9995 20.0412H34.3576V19.5803H35.513V21.0716H35.1278L35.067 20.7259C34.9522 20.8547 34.8576 20.9496 34.763 21.0038C34.6076 21.0987 34.4251 21.1461 34.1954 21.1461C33.8306 21.1461 33.5265 21.0173 33.29 20.7665C33.0468 20.509 32.9252 20.1565 32.9252 19.7159C32.9252 19.2685 33.0468 18.9025 33.2968 18.6313C33.5468 18.3602 33.8711 18.2246 34.2765 18.2246C34.6278 18.2246 34.9116 18.3127 35.1278 18.4957C35.344 18.672 35.4657 18.8957 35.4927 19.1668H34.9319Z" fill="#CC1417"/>
<path d="M42.1209 18.3734C42.2223 18.4141 42.3101 18.4819 42.3777 18.57C42.4385 18.6378 42.4858 18.7192 42.5196 18.8073C42.5533 18.8954 42.5736 18.9903 42.5736 19.0987C42.5736 19.2275 42.5398 19.3631 42.4723 19.4851C42.4047 19.6139 42.2966 19.702 42.1412 19.7563C42.2696 19.8105 42.3574 19.8783 42.4114 19.9732C42.4655 20.0681 42.4925 20.2104 42.4925 20.407V20.5968C42.4925 20.7256 42.4993 20.8069 42.506 20.8544C42.5196 20.9289 42.5601 20.9764 42.6141 21.0103V21.0781H41.9723C41.952 21.0171 41.9452 20.9696 41.9317 20.9289C41.9182 20.8544 41.9115 20.773 41.9047 20.6917L41.8979 20.4341C41.8979 20.2579 41.8642 20.1359 41.8033 20.0816C41.7425 20.0206 41.6344 19.9935 41.4723 19.9935H40.9047V21.0848H40.3372V18.3057H41.6615C41.8709 18.3057 42.0196 18.326 42.1209 18.3734ZM40.925 18.7802V19.5258H41.5466C41.6682 19.5258 41.7628 19.5122 41.8236 19.4783C41.9317 19.4241 41.9858 19.3224 41.9858 19.1665C41.9858 18.9971 41.9317 18.8818 41.8236 18.8276C41.7628 18.7937 41.675 18.7802 41.5534 18.7802H40.925Z" fill="#CC1417"/>
<path d="M49.5397 20.8343C49.3303 21.0512 49.0262 21.1596 48.6344 21.1596C48.2425 21.1596 47.9384 21.0512 47.729 20.8343C47.4452 20.5699 47.3101 20.1835 47.3101 19.6887C47.3101 19.1803 47.4519 18.7939 47.729 18.5431C47.9384 18.3262 48.2425 18.2178 48.6344 18.2178C49.0262 18.2178 49.3303 18.3262 49.5397 18.5431C49.8168 18.8007 49.9587 19.1803 49.9587 19.6887C49.9587 20.1835 49.8168 20.5699 49.5397 20.8343ZM49.1749 20.414C49.31 20.2445 49.3776 20.0005 49.3776 19.6887C49.3776 19.3769 49.31 19.1329 49.1749 18.9634C49.0398 18.7939 48.8573 18.7058 48.6276 18.7058C48.3979 18.7058 48.2154 18.7939 48.0803 18.9634C47.9452 19.1329 47.8776 19.3769 47.8776 19.6887C47.8776 20.0005 47.9452 20.2445 48.0803 20.414C48.2154 20.5835 48.3979 20.6716 48.6276 20.6716C48.8573 20.6716 49.0398 20.5835 49.1749 20.414Z" fill="#CC1417"/>
<path d="M54.6815 18.2993H55.2693V20.0075C55.2693 20.1973 55.2896 20.3396 55.3369 20.4278C55.4045 20.5837 55.5599 20.6582 55.7964 20.6582C56.0328 20.6582 56.1815 20.5837 56.2491 20.4278C56.2964 20.3396 56.3166 20.1973 56.3166 20.0075V18.2993H56.9045V20.0075C56.9045 20.3057 56.8572 20.5362 56.7693 20.6989C56.6004 21.0039 56.2761 21.1531 55.7964 21.1531C55.3166 21.1531 54.9923 21.0039 54.8234 20.6989C54.7288 20.5362 54.6883 20.3057 54.6883 20.0075L54.6815 18.2993Z" fill="#CC1417"/>
<path d="M63.6003 19.8783C63.4381 20.0138 63.2084 20.0816 62.9044 20.0816H62.3301V21.0848H61.7557V18.3057H62.9449C63.2219 18.3057 63.4381 18.3802 63.6003 18.5226C63.7625 18.6649 63.8435 18.8886 63.8435 19.1869C63.8435 19.5055 63.7625 19.7427 63.6003 19.8783ZM63.1611 18.8751C63.0868 18.814 62.9854 18.7802 62.8503 18.7802H62.3301V19.6004H62.8503C62.9854 19.6004 63.0868 19.5665 63.1611 19.4987C63.2354 19.4309 63.2692 19.3292 63.2692 19.1801C63.2692 19.031 63.2354 18.9361 63.1611 18.8751Z" fill="#CC1417"/>
<defs>
<linearGradient id="paint0_linear_341_213" x1="7.80551" y1="3.5185" x2="18.0114" y2="21.1387" gradientUnits="userSpaceOnUse">
<stop stop-color="#CB1619"/>
<stop offset="0.3368" stop-color="#C31619"/>
<stop offset="0.6716" stop-color="#AD1619"/>
<stop offset="1" stop-color="#911619"/>
</linearGradient>
</defs>
</svg>
