<svg xmlns="http://www.w3.org/2000/svg" width="114.633" height="44.064" viewBox="0 0 114.633 44.064">
  <g id="Camada_x0020_1" transform="translate(-7483.75 -13842.723)">
    <g id="_2651194496608" transform="translate(7483.75 13842.723)">
      <path id="Caminho_207" data-name="Caminho 207" d="M7483.892,13867.6h44.482a.142.142,0,0,1,.142.141v5.313a.141.141,0,0,1-.142.142h-16.621v25.026a.141.141,0,0,1-.141.141h-11.081a.141.141,0,0,1-.141-.141V13873.2h-16.5a.141.141,0,0,1-.141-.142v-5.313A.141.141,0,0,1,7483.892,13867.6Z" transform="translate(-7483.751 -13867.003)" fill="#fefefe" fill-rule="evenodd"/>
      <path id="Caminho_208" data-name="Caminho 208" d="M11799.543,13866.562v30.507a.142.142,0,0,1-.142.142h-11.08a.142.142,0,0,1-.142-.142v-30.507a.141.141,0,0,1,.142-.141h11.08A.141.141,0,0,1,11799.543,13866.562Z" transform="translate(-11684.91 -13865.852)" fill="#fefefe" fill-rule="evenodd"/>
      <path id="Caminho_209" data-name="Caminho 209" d="M9840.741,14867c-.311.049-.271.356-.059.362,12.844.242,7.24,7.547.574,16.712-.235.349.13.425.433.028,4.416-4.77,9.088-9.386,14.036-14.037,4.942-4.472,4.451-5.955-3.57-4.928C9850.374,14865.42,9841.822,14866.827,9840.741,14867Z" transform="translate(-9783.973 -14840.301)" fill="#e61c2e" fill-rule="evenodd"/>
      <path id="Caminho_210" data-name="Caminho 210" d="M9025.312,13864.831c-.416,7.226,5.632,7.729,12.208,7.682-6.164,1.633-12.321,2.959-18.4,1.341-4.843-1.43-5.276-5.016-2.465-9.27a28.939,28.939,0,0,1,6.325-6.489c10.364-8.245,25.866-14.573,39.087-15.347,9.771-.382,13.5,3.507,8.7,10.525-3.7,4.787-9.638,9.116-16.962,12.876-.289.125-.457,0,.011-.307,7.826-5.437,11.713-12.914,6.791-17.2-4.107-2.808-10.417-2.715-19.072.731C9031.547,13853.864,9025.7,13860.862,9025.312,13864.831Z" transform="translate(-8978.174 -13842.723)" fill="#fefefe" fill-rule="evenodd"/>
    </g>
  </g>
</svg>
